<svg width="265" height="180" viewBox="0 0 265 180" fill="none" xmlns="http://www.w3.org/2000/svg">
<g filter="url(#filter0_d_867_81217)">
<ellipse cx="25.3019" cy="73.8973" rx="0.801887" ry="0.801587" fill="black"/>
<ellipse cx="111.905" cy="73.8973" rx="0.801887" ry="0.801587" fill="black"/>
<ellipse cx="25.3019" cy="78.7059" rx="0.801887" ry="0.801587" fill="black"/>
<ellipse cx="111.905" cy="78.7059" rx="0.801887" ry="0.801587" fill="black"/>
<ellipse cx="30.1134" cy="73.8973" rx="0.801887" ry="0.801587" fill="black"/>
<ellipse cx="116.717" cy="73.8973" rx="0.801887" ry="0.801587" fill="black"/>
<ellipse cx="30.1134" cy="78.7059" rx="0.801887" ry="0.801587" fill="black"/>
<ellipse cx="116.717" cy="78.7059" rx="0.801887" ry="0.801587" fill="black"/>
<ellipse cx="34.9249" cy="73.8973" rx="0.801887" ry="0.801587" fill="black"/>
<ellipse cx="121.528" cy="73.8973" rx="0.801887" ry="0.801587" fill="black"/>
<ellipse cx="34.9249" cy="78.7059" rx="0.801887" ry="0.801587" fill="black"/>
<ellipse cx="121.528" cy="78.7059" rx="0.801887" ry="0.801587" fill="black"/>
<ellipse cx="39.7355" cy="73.8973" rx="0.801887" ry="0.801587" fill="black"/>
<ellipse cx="126.34" cy="73.8973" rx="0.801887" ry="0.801587" fill="black"/>
<ellipse cx="39.7355" cy="78.7059" rx="0.801887" ry="0.801587" fill="black"/>
<ellipse cx="126.34" cy="78.7059" rx="0.801887" ry="0.801587" fill="black"/>
<ellipse cx="44.547" cy="73.8973" rx="0.801887" ry="0.801587" fill="black"/>
<ellipse cx="131.151" cy="73.8973" rx="0.801887" ry="0.801587" fill="black"/>
<ellipse cx="44.547" cy="78.7059" rx="0.801887" ry="0.801587" fill="black"/>
<ellipse cx="131.151" cy="78.7059" rx="0.801887" ry="0.801587" fill="black"/>
<ellipse cx="49.3585" cy="73.8973" rx="0.801887" ry="0.801587" fill="black"/>
<ellipse cx="49.3585" cy="78.7059" rx="0.801887" ry="0.801587" fill="black"/>
<ellipse cx="54.1701" cy="73.8973" rx="0.801887" ry="0.801587" fill="black"/>
<ellipse cx="54.1701" cy="78.7059" rx="0.801887" ry="0.801587" fill="black"/>
<ellipse cx="58.9816" cy="73.8973" rx="0.801887" ry="0.801587" fill="black"/>
<ellipse cx="58.9816" cy="78.7059" rx="0.801887" ry="0.801587" fill="black"/>
<ellipse cx="63.7921" cy="73.8973" rx="0.801887" ry="0.801587" fill="black"/>
<ellipse cx="63.7921" cy="78.7059" rx="0.801887" ry="0.801587" fill="black"/>
<ellipse cx="68.6036" cy="73.8973" rx="0.801887" ry="0.801587" fill="black"/>
<ellipse cx="68.6036" cy="78.7059" rx="0.801887" ry="0.801587" fill="black"/>
<ellipse cx="73.4152" cy="73.8973" rx="0.801887" ry="0.801587" fill="black"/>
<ellipse cx="73.4152" cy="78.7059" rx="0.801887" ry="0.801587" fill="black"/>
<ellipse cx="78.2267" cy="73.8973" rx="0.801887" ry="0.801587" fill="black"/>
<ellipse cx="78.2267" cy="78.7059" rx="0.801887" ry="0.801587" fill="black"/>
<ellipse cx="83.0382" cy="73.8973" rx="0.801887" ry="0.801587" fill="black"/>
<ellipse cx="83.0382" cy="78.7059" rx="0.801887" ry="0.801587" fill="black"/>
<ellipse cx="87.8488" cy="73.8973" rx="0.801887" ry="0.801587" fill="black"/>
<ellipse cx="87.8488" cy="78.7059" rx="0.801887" ry="0.801587" fill="black"/>
<ellipse cx="92.6603" cy="73.8973" rx="0.801887" ry="0.801587" fill="black"/>
<ellipse cx="92.6603" cy="78.7059" rx="0.801887" ry="0.801587" fill="black"/>
<ellipse cx="97.4718" cy="73.8973" rx="0.801887" ry="0.801587" fill="black"/>
<ellipse cx="97.4718" cy="78.7059" rx="0.801887" ry="0.801587" fill="black"/>
<ellipse cx="102.283" cy="73.8973" rx="0.801887" ry="0.801587" fill="black"/>
<ellipse cx="102.283" cy="78.7059" rx="0.801887" ry="0.801587" fill="black"/>
<ellipse cx="107.094" cy="73.8973" rx="0.801887" ry="0.801587" fill="black"/>
<ellipse cx="107.094" cy="78.7059" rx="0.801887" ry="0.801587" fill="black"/>
<ellipse cx="25.3019" cy="25.8016" rx="0.801887" ry="0.801587" fill="black"/>
<ellipse cx="111.905" cy="25.8016" rx="0.801887" ry="0.801587" fill="black"/>
<ellipse cx="25.3019" cy="30.6102" rx="0.801887" ry="0.801587" fill="black"/>
<ellipse cx="111.905" cy="30.6102" rx="0.801887" ry="0.801587" fill="black"/>
<ellipse cx="30.1134" cy="25.8016" rx="0.801887" ry="0.801587" fill="black"/>
<ellipse cx="116.717" cy="25.8016" rx="0.801887" ry="0.801587" fill="black"/>
<ellipse cx="30.1134" cy="30.6102" rx="0.801887" ry="0.801587" fill="black"/>
<ellipse cx="116.717" cy="30.6102" rx="0.801887" ry="0.801587" fill="black"/>
<ellipse cx="34.9249" cy="25.8016" rx="0.801887" ry="0.801587" fill="black"/>
<ellipse cx="121.528" cy="25.8016" rx="0.801887" ry="0.801587" fill="black"/>
<ellipse cx="34.9249" cy="30.6102" rx="0.801887" ry="0.801587" fill="black"/>
<ellipse cx="121.528" cy="30.6102" rx="0.801887" ry="0.801587" fill="black"/>
<ellipse cx="39.7355" cy="25.8016" rx="0.801887" ry="0.801587" fill="black"/>
<ellipse cx="126.34" cy="25.8016" rx="0.801887" ry="0.801587" fill="black"/>
<ellipse cx="39.7355" cy="30.6102" rx="0.801887" ry="0.801587" fill="black"/>
<ellipse cx="126.34" cy="30.6102" rx="0.801887" ry="0.801587" fill="black"/>
<ellipse cx="44.547" cy="25.8016" rx="0.801887" ry="0.801587" fill="black"/>
<ellipse cx="131.151" cy="25.8016" rx="0.801887" ry="0.801587" fill="black"/>
<ellipse cx="44.547" cy="30.6102" rx="0.801887" ry="0.801587" fill="black"/>
<ellipse cx="131.151" cy="30.6102" rx="0.801887" ry="0.801587" fill="black"/>
<ellipse cx="49.3585" cy="25.8016" rx="0.801887" ry="0.801587" fill="black"/>
<ellipse cx="49.3585" cy="30.6102" rx="0.801887" ry="0.801587" fill="black"/>
<ellipse cx="25.3019" cy="83.5164" rx="0.801887" ry="0.801587" fill="black"/>
<ellipse cx="111.905" cy="83.5164" rx="0.801887" ry="0.801587" fill="black"/>
<ellipse cx="25.3019" cy="88.325" rx="0.801887" ry="0.801587" fill="black"/>
<ellipse cx="111.905" cy="88.325" rx="0.801887" ry="0.801587" fill="black"/>
<ellipse cx="30.1134" cy="83.5164" rx="0.801887" ry="0.801587" fill="black"/>
<ellipse cx="116.717" cy="83.5164" rx="0.801887" ry="0.801587" fill="black"/>
<ellipse cx="30.1134" cy="88.325" rx="0.801887" ry="0.801587" fill="black"/>
<ellipse cx="116.717" cy="88.325" rx="0.801887" ry="0.801587" fill="black"/>
<ellipse cx="34.9249" cy="83.5164" rx="0.801887" ry="0.801587" fill="black"/>
<ellipse cx="121.528" cy="83.5164" rx="0.801887" ry="0.801587" fill="black"/>
<ellipse cx="34.9249" cy="88.325" rx="0.801887" ry="0.801587" fill="black"/>
<ellipse cx="121.528" cy="88.325" rx="0.801887" ry="0.801587" fill="black"/>
<ellipse cx="39.7355" cy="83.5164" rx="0.801887" ry="0.801587" fill="black"/>
<ellipse cx="126.34" cy="83.5164" rx="0.801887" ry="0.801587" fill="black"/>
<ellipse cx="39.7355" cy="88.325" rx="0.801887" ry="0.801587" fill="black"/>
<ellipse cx="126.34" cy="88.325" rx="0.801887" ry="0.801587" fill="black"/>
<ellipse cx="44.547" cy="83.5164" rx="0.801887" ry="0.801587" fill="black"/>
<ellipse cx="131.151" cy="83.5164" rx="0.801887" ry="0.801587" fill="black"/>
<ellipse cx="44.547" cy="88.325" rx="0.801887" ry="0.801587" fill="black"/>
<ellipse cx="131.151" cy="88.325" rx="0.801887" ry="0.801587" fill="black"/>
<ellipse cx="49.3585" cy="83.5164" rx="0.801887" ry="0.801587" fill="black"/>
<ellipse cx="49.3585" cy="88.325" rx="0.801887" ry="0.801587" fill="black"/>
<ellipse cx="54.1701" cy="25.8016" rx="0.801887" ry="0.801587" fill="black"/>
<ellipse cx="54.1701" cy="30.6102" rx="0.801887" ry="0.801587" fill="black"/>
<ellipse cx="58.9816" cy="25.8016" rx="0.801887" ry="0.801587" fill="black"/>
<ellipse cx="58.9816" cy="30.6102" rx="0.801887" ry="0.801587" fill="black"/>
<ellipse cx="63.7921" cy="25.8016" rx="0.801887" ry="0.801587" fill="black"/>
<ellipse cx="63.7921" cy="30.6102" rx="0.801887" ry="0.801587" fill="black"/>
<ellipse cx="68.6036" cy="25.8016" rx="0.801887" ry="0.801587" fill="black"/>
<ellipse cx="68.6036" cy="30.6102" rx="0.801887" ry="0.801587" fill="black"/>
<ellipse cx="73.4152" cy="25.8016" rx="0.801887" ry="0.801587" fill="black"/>
<ellipse cx="73.4152" cy="30.6102" rx="0.801887" ry="0.801587" fill="black"/>
<ellipse cx="78.2267" cy="25.8016" rx="0.801887" ry="0.801587" fill="black"/>
<ellipse cx="78.2267" cy="30.6102" rx="0.801887" ry="0.801587" fill="black"/>
<ellipse cx="54.1701" cy="83.5164" rx="0.801887" ry="0.801587" fill="black"/>
<ellipse cx="54.1701" cy="88.325" rx="0.801887" ry="0.801587" fill="black"/>
<ellipse cx="58.9816" cy="83.5164" rx="0.801887" ry="0.801587" fill="black"/>
<ellipse cx="58.9816" cy="88.325" rx="0.801887" ry="0.801587" fill="black"/>
<ellipse cx="63.7921" cy="83.5164" rx="0.801887" ry="0.801587" fill="black"/>
<ellipse cx="63.7921" cy="88.325" rx="0.801887" ry="0.801587" fill="black"/>
<ellipse cx="68.6036" cy="83.5164" rx="0.801887" ry="0.801587" fill="black"/>
<ellipse cx="68.6036" cy="88.325" rx="0.801887" ry="0.801587" fill="black"/>
<ellipse cx="73.4152" cy="83.5164" rx="0.801887" ry="0.801587" fill="black"/>
<ellipse cx="73.4152" cy="88.325" rx="0.801887" ry="0.801587" fill="black"/>
<ellipse cx="78.2267" cy="83.5164" rx="0.801887" ry="0.801587" fill="black"/>
<ellipse cx="78.2267" cy="88.325" rx="0.801887" ry="0.801587" fill="black"/>
<ellipse cx="83.0382" cy="25.8016" rx="0.801887" ry="0.801587" fill="black"/>
<ellipse cx="83.0382" cy="30.6102" rx="0.801887" ry="0.801587" fill="black"/>
<ellipse cx="87.8488" cy="25.8016" rx="0.801887" ry="0.801587" fill="black"/>
<ellipse cx="87.8488" cy="30.6102" rx="0.801887" ry="0.801587" fill="black"/>
<ellipse cx="92.6603" cy="25.8016" rx="0.801887" ry="0.801587" fill="black"/>
<ellipse cx="92.6603" cy="30.6102" rx="0.801887" ry="0.801587" fill="black"/>
<ellipse cx="97.4718" cy="25.8016" rx="0.801887" ry="0.801587" fill="black"/>
<ellipse cx="97.4718" cy="30.6102" rx="0.801887" ry="0.801587" fill="black"/>
<ellipse cx="102.283" cy="25.8016" rx="0.801887" ry="0.801587" fill="black"/>
<ellipse cx="102.283" cy="30.6102" rx="0.801887" ry="0.801587" fill="black"/>
<ellipse cx="107.094" cy="25.8016" rx="0.801887" ry="0.801587" fill="black"/>
<ellipse cx="107.094" cy="30.6102" rx="0.801887" ry="0.801587" fill="black"/>
<ellipse cx="83.0382" cy="83.5164" rx="0.801887" ry="0.801587" fill="black"/>
<ellipse cx="83.0382" cy="88.325" rx="0.801887" ry="0.801587" fill="black"/>
<ellipse cx="87.8488" cy="83.5164" rx="0.801887" ry="0.801587" fill="black"/>
<ellipse cx="87.8488" cy="88.325" rx="0.801887" ry="0.801587" fill="black"/>
<ellipse cx="92.6603" cy="83.5164" rx="0.801887" ry="0.801587" fill="black"/>
<ellipse cx="92.6603" cy="88.325" rx="0.801887" ry="0.801587" fill="black"/>
<ellipse cx="97.4718" cy="83.5164" rx="0.801887" ry="0.801587" fill="black"/>
<ellipse cx="97.4718" cy="88.325" rx="0.801887" ry="0.801587" fill="black"/>
<ellipse cx="102.283" cy="83.5164" rx="0.801887" ry="0.801587" fill="black"/>
<ellipse cx="102.283" cy="88.325" rx="0.801887" ry="0.801587" fill="black"/>
<ellipse cx="107.094" cy="83.5164" rx="0.801887" ry="0.801587" fill="black"/>
<ellipse cx="107.094" cy="88.325" rx="0.801887" ry="0.801587" fill="black"/>
<ellipse cx="25.3019" cy="35.4207" rx="0.801887" ry="0.801587" fill="black"/>
<ellipse cx="111.905" cy="35.4207" rx="0.801887" ry="0.801587" fill="black"/>
<ellipse cx="25.3019" cy="40.2313" rx="0.801887" ry="0.801587" fill="black"/>
<ellipse cx="111.905" cy="40.2313" rx="0.801887" ry="0.801587" fill="black"/>
<ellipse cx="30.1134" cy="35.4207" rx="0.801887" ry="0.801587" fill="black"/>
<ellipse cx="116.717" cy="35.4207" rx="0.801887" ry="0.801587" fill="black"/>
<ellipse cx="30.1134" cy="40.2313" rx="0.801887" ry="0.801587" fill="black"/>
<ellipse cx="116.717" cy="40.2313" rx="0.801887" ry="0.801587" fill="black"/>
<ellipse cx="34.9249" cy="35.4207" rx="0.801887" ry="0.801587" fill="black"/>
<ellipse cx="121.528" cy="35.4207" rx="0.801887" ry="0.801587" fill="black"/>
<ellipse cx="34.9249" cy="40.2313" rx="0.801887" ry="0.801587" fill="black"/>
<ellipse cx="121.528" cy="40.2313" rx="0.801887" ry="0.801587" fill="black"/>
<ellipse cx="39.7355" cy="35.4207" rx="0.801887" ry="0.801587" fill="black"/>
<ellipse cx="126.34" cy="35.4207" rx="0.801887" ry="0.801587" fill="black"/>
<ellipse cx="39.7355" cy="40.2313" rx="0.801887" ry="0.801587" fill="black"/>
<ellipse cx="126.34" cy="40.2313" rx="0.801887" ry="0.801587" fill="black"/>
<ellipse cx="44.547" cy="35.4207" rx="0.801887" ry="0.801587" fill="black"/>
<ellipse cx="131.151" cy="35.4207" rx="0.801887" ry="0.801587" fill="black"/>
<ellipse cx="44.547" cy="40.2313" rx="0.801887" ry="0.801587" fill="black"/>
<ellipse cx="131.151" cy="40.2313" rx="0.801887" ry="0.801587" fill="black"/>
<ellipse cx="49.3585" cy="35.4207" rx="0.801887" ry="0.801587" fill="black"/>
<ellipse cx="49.3585" cy="40.2313" rx="0.801887" ry="0.801587" fill="black"/>
<ellipse cx="25.3019" cy="93.1336" rx="0.801887" ry="0.801587" fill="black"/>
<ellipse cx="111.905" cy="93.1336" rx="0.801887" ry="0.801587" fill="black"/>
<ellipse cx="25.3019" cy="97.9442" rx="0.801887" ry="0.801587" fill="black"/>
<ellipse cx="111.905" cy="97.9442" rx="0.801887" ry="0.801587" fill="black"/>
<ellipse cx="30.1134" cy="93.1336" rx="0.801887" ry="0.801587" fill="black"/>
<ellipse cx="116.717" cy="93.1336" rx="0.801887" ry="0.801587" fill="black"/>
<ellipse cx="30.1134" cy="97.9442" rx="0.801887" ry="0.801587" fill="black"/>
<ellipse cx="116.717" cy="97.9442" rx="0.801887" ry="0.801587" fill="black"/>
<ellipse cx="34.9249" cy="93.1336" rx="0.801887" ry="0.801587" fill="black"/>
<ellipse cx="121.528" cy="93.1336" rx="0.801887" ry="0.801587" fill="black"/>
<ellipse cx="34.9249" cy="97.9442" rx="0.801887" ry="0.801587" fill="black"/>
<ellipse cx="121.528" cy="97.9442" rx="0.801887" ry="0.801587" fill="black"/>
<ellipse cx="39.7355" cy="93.1336" rx="0.801887" ry="0.801587" fill="black"/>
<ellipse cx="126.34" cy="93.1336" rx="0.801887" ry="0.801587" fill="black"/>
<ellipse cx="39.7355" cy="97.9442" rx="0.801887" ry="0.801587" fill="black"/>
<ellipse cx="126.34" cy="97.9442" rx="0.801887" ry="0.801587" fill="black"/>
<ellipse cx="44.547" cy="93.1336" rx="0.801887" ry="0.801587" fill="black"/>
<ellipse cx="131.151" cy="93.1336" rx="0.801887" ry="0.801587" fill="black"/>
<ellipse cx="44.547" cy="97.9442" rx="0.801887" ry="0.801587" fill="black"/>
<ellipse cx="131.151" cy="97.9442" rx="0.801887" ry="0.801587" fill="black"/>
<ellipse cx="49.3585" cy="93.1336" rx="0.801887" ry="0.801587" fill="black"/>
<ellipse cx="49.3585" cy="97.9442" rx="0.801887" ry="0.801587" fill="black"/>
<ellipse cx="54.1701" cy="35.4207" rx="0.801887" ry="0.801587" fill="black"/>
<ellipse cx="54.1701" cy="40.2313" rx="0.801887" ry="0.801587" fill="black"/>
<ellipse cx="58.9816" cy="35.4207" rx="0.801887" ry="0.801587" fill="black"/>
<ellipse cx="58.9816" cy="40.2313" rx="0.801887" ry="0.801587" fill="black"/>
<ellipse cx="63.7921" cy="35.4207" rx="0.801887" ry="0.801587" fill="black"/>
<ellipse cx="63.7921" cy="40.2313" rx="0.801887" ry="0.801587" fill="black"/>
<ellipse cx="68.6036" cy="35.4207" rx="0.801887" ry="0.801587" fill="black"/>
<ellipse cx="68.6036" cy="40.2313" rx="0.801887" ry="0.801587" fill="black"/>
<ellipse cx="73.4152" cy="35.4207" rx="0.801887" ry="0.801587" fill="black"/>
<ellipse cx="73.4152" cy="40.2313" rx="0.801887" ry="0.801587" fill="black"/>
<ellipse cx="78.2267" cy="35.4207" rx="0.801887" ry="0.801587" fill="black"/>
<ellipse cx="78.2267" cy="40.2313" rx="0.801887" ry="0.801587" fill="black"/>
<ellipse cx="54.1701" cy="93.1336" rx="0.801887" ry="0.801587" fill="black"/>
<ellipse cx="54.1701" cy="97.9442" rx="0.801887" ry="0.801587" fill="black"/>
<ellipse cx="58.9816" cy="93.1336" rx="0.801887" ry="0.801587" fill="black"/>
<ellipse cx="58.9816" cy="97.9442" rx="0.801887" ry="0.801587" fill="black"/>
<ellipse cx="63.7921" cy="93.1336" rx="0.801887" ry="0.801587" fill="black"/>
<ellipse cx="63.7921" cy="97.9442" rx="0.801887" ry="0.801587" fill="black"/>
<ellipse cx="68.6036" cy="93.1336" rx="0.801887" ry="0.801587" fill="black"/>
<ellipse cx="68.6036" cy="97.9442" rx="0.801887" ry="0.801587" fill="black"/>
<ellipse cx="73.4152" cy="93.1336" rx="0.801887" ry="0.801587" fill="black"/>
<ellipse cx="73.4152" cy="97.9442" rx="0.801887" ry="0.801587" fill="black"/>
<ellipse cx="78.2267" cy="93.1336" rx="0.801887" ry="0.801587" fill="black"/>
<ellipse cx="78.2267" cy="97.9442" rx="0.801887" ry="0.801587" fill="black"/>
<ellipse cx="83.0382" cy="35.4207" rx="0.801887" ry="0.801587" fill="black"/>
<ellipse cx="83.0382" cy="40.2313" rx="0.801887" ry="0.801587" fill="black"/>
<ellipse cx="87.8488" cy="35.4207" rx="0.801887" ry="0.801587" fill="black"/>
<ellipse cx="87.8488" cy="40.2313" rx="0.801887" ry="0.801587" fill="black"/>
<ellipse cx="92.6603" cy="35.4207" rx="0.801887" ry="0.801587" fill="black"/>
<ellipse cx="92.6603" cy="40.2313" rx="0.801887" ry="0.801587" fill="black"/>
<ellipse cx="97.4718" cy="35.4207" rx="0.801887" ry="0.801587" fill="black"/>
<ellipse cx="97.4718" cy="40.2313" rx="0.801887" ry="0.801587" fill="black"/>
<ellipse cx="102.283" cy="35.4207" rx="0.801887" ry="0.801587" fill="black"/>
<ellipse cx="102.283" cy="40.2313" rx="0.801887" ry="0.801587" fill="black"/>
<ellipse cx="107.094" cy="35.4207" rx="0.801887" ry="0.801587" fill="black"/>
<ellipse cx="107.094" cy="40.2313" rx="0.801887" ry="0.801587" fill="black"/>
<ellipse cx="83.0382" cy="93.1336" rx="0.801887" ry="0.801587" fill="black"/>
<ellipse cx="83.0382" cy="97.9442" rx="0.801887" ry="0.801587" fill="black"/>
<ellipse cx="87.8488" cy="93.1336" rx="0.801887" ry="0.801587" fill="black"/>
<ellipse cx="87.8488" cy="97.9442" rx="0.801887" ry="0.801587" fill="black"/>
<ellipse cx="92.6603" cy="93.1336" rx="0.801887" ry="0.801587" fill="black"/>
<ellipse cx="92.6603" cy="97.9442" rx="0.801887" ry="0.801587" fill="black"/>
<ellipse cx="97.4718" cy="93.1336" rx="0.801887" ry="0.801587" fill="black"/>
<ellipse cx="97.4718" cy="97.9442" rx="0.801887" ry="0.801587" fill="black"/>
<ellipse cx="102.283" cy="93.1336" rx="0.801887" ry="0.801587" fill="black"/>
<ellipse cx="102.283" cy="97.9442" rx="0.801887" ry="0.801587" fill="black"/>
<ellipse cx="107.094" cy="93.1336" rx="0.801887" ry="0.801587" fill="black"/>
<ellipse cx="107.094" cy="97.9442" rx="0.801887" ry="0.801587" fill="black"/>
<ellipse cx="25.3019" cy="45.0399" rx="0.801887" ry="0.801587" fill="black"/>
<ellipse cx="111.905" cy="45.0399" rx="0.801887" ry="0.801587" fill="black"/>
<ellipse cx="25.3019" cy="49.8485" rx="0.801887" ry="0.801587" fill="black"/>
<ellipse cx="111.905" cy="49.8485" rx="0.801887" ry="0.801587" fill="black"/>
<ellipse cx="30.1134" cy="45.0399" rx="0.801887" ry="0.801587" fill="black"/>
<ellipse cx="116.717" cy="45.0399" rx="0.801887" ry="0.801587" fill="black"/>
<ellipse cx="30.1134" cy="49.8485" rx="0.801887" ry="0.801587" fill="black"/>
<ellipse cx="116.717" cy="49.8485" rx="0.801887" ry="0.801587" fill="black"/>
<ellipse cx="34.9249" cy="45.0399" rx="0.801887" ry="0.801587" fill="black"/>
<ellipse cx="121.528" cy="45.0399" rx="0.801887" ry="0.801587" fill="black"/>
<ellipse cx="34.9249" cy="49.8485" rx="0.801887" ry="0.801587" fill="black"/>
<ellipse cx="121.528" cy="49.8485" rx="0.801887" ry="0.801587" fill="black"/>
<ellipse cx="39.7355" cy="45.0399" rx="0.801887" ry="0.801587" fill="black"/>
<ellipse cx="126.34" cy="45.0399" rx="0.801887" ry="0.801587" fill="black"/>
<ellipse cx="39.7355" cy="49.8485" rx="0.801887" ry="0.801587" fill="black"/>
<ellipse cx="126.34" cy="49.8485" rx="0.801887" ry="0.801587" fill="black"/>
<ellipse cx="44.547" cy="45.0399" rx="0.801887" ry="0.801587" fill="black"/>
<ellipse cx="131.151" cy="45.0399" rx="0.801887" ry="0.801587" fill="black"/>
<ellipse cx="44.547" cy="49.8485" rx="0.801887" ry="0.801587" fill="black"/>
<ellipse cx="131.151" cy="49.8485" rx="0.801887" ry="0.801587" fill="black"/>
<ellipse cx="49.3585" cy="45.0399" rx="0.801887" ry="0.801587" fill="black"/>
<ellipse cx="49.3585" cy="49.8485" rx="0.801887" ry="0.801587" fill="black"/>
<ellipse cx="25.3019" cy="102.755" rx="0.801887" ry="0.801587" fill="black"/>
<ellipse cx="111.905" cy="102.755" rx="0.801887" ry="0.801587" fill="black"/>
<ellipse cx="25.3019" cy="107.563" rx="0.801887" ry="0.801587" fill="black"/>
<ellipse cx="111.905" cy="107.563" rx="0.801887" ry="0.801587" fill="black"/>
<ellipse cx="30.1134" cy="102.755" rx="0.801887" ry="0.801587" fill="black"/>
<ellipse cx="116.717" cy="102.755" rx="0.801887" ry="0.801587" fill="black"/>
<ellipse cx="30.1134" cy="107.563" rx="0.801887" ry="0.801587" fill="black"/>
<ellipse cx="116.717" cy="107.563" rx="0.801887" ry="0.801587" fill="black"/>
<ellipse cx="34.9249" cy="102.755" rx="0.801887" ry="0.801587" fill="black"/>
<ellipse cx="121.528" cy="102.755" rx="0.801887" ry="0.801587" fill="black"/>
<ellipse cx="34.9249" cy="107.563" rx="0.801887" ry="0.801587" fill="black"/>
<ellipse cx="121.528" cy="107.563" rx="0.801887" ry="0.801587" fill="black"/>
<ellipse cx="39.7355" cy="102.755" rx="0.801887" ry="0.801587" fill="black"/>
<ellipse cx="126.34" cy="102.755" rx="0.801887" ry="0.801587" fill="black"/>
<ellipse cx="39.7355" cy="107.563" rx="0.801887" ry="0.801587" fill="black"/>
<ellipse cx="126.34" cy="107.563" rx="0.801887" ry="0.801587" fill="black"/>
<ellipse cx="44.547" cy="102.755" rx="0.801887" ry="0.801587" fill="black"/>
<ellipse cx="131.151" cy="102.755" rx="0.801887" ry="0.801587" fill="black"/>
<ellipse cx="44.547" cy="107.563" rx="0.801887" ry="0.801587" fill="black"/>
<ellipse cx="131.151" cy="107.563" rx="0.801887" ry="0.801587" fill="black"/>
<ellipse cx="49.3585" cy="102.755" rx="0.801887" ry="0.801587" fill="black"/>
<ellipse cx="49.3585" cy="107.563" rx="0.801887" ry="0.801587" fill="black"/>
<ellipse cx="54.1701" cy="45.0399" rx="0.801887" ry="0.801587" fill="black"/>
<ellipse cx="54.1701" cy="49.8485" rx="0.801887" ry="0.801587" fill="black"/>
<ellipse cx="58.9816" cy="45.0399" rx="0.801887" ry="0.801587" fill="black"/>
<ellipse cx="58.9816" cy="49.8485" rx="0.801887" ry="0.801587" fill="black"/>
<ellipse cx="63.7921" cy="45.0399" rx="0.801887" ry="0.801587" fill="black"/>
<ellipse cx="63.7921" cy="49.8485" rx="0.801887" ry="0.801587" fill="black"/>
<ellipse cx="68.6036" cy="45.0399" rx="0.801887" ry="0.801587" fill="black"/>
<ellipse cx="68.6036" cy="49.8485" rx="0.801887" ry="0.801587" fill="black"/>
<ellipse cx="73.4152" cy="45.0399" rx="0.801887" ry="0.801587" fill="black"/>
<ellipse cx="73.4152" cy="49.8485" rx="0.801887" ry="0.801587" fill="black"/>
<ellipse cx="78.2267" cy="45.0399" rx="0.801887" ry="0.801587" fill="black"/>
<ellipse cx="78.2267" cy="49.8485" rx="0.801887" ry="0.801587" fill="black"/>
<ellipse cx="54.1701" cy="102.755" rx="0.801887" ry="0.801587" fill="black"/>
<ellipse cx="54.1701" cy="107.563" rx="0.801887" ry="0.801587" fill="black"/>
<ellipse cx="58.9816" cy="102.755" rx="0.801887" ry="0.801587" fill="black"/>
<ellipse cx="58.9816" cy="107.563" rx="0.801887" ry="0.801587" fill="black"/>
<ellipse cx="63.7921" cy="102.755" rx="0.801887" ry="0.801587" fill="black"/>
<ellipse cx="63.7921" cy="107.563" rx="0.801887" ry="0.801587" fill="black"/>
<ellipse cx="68.6036" cy="102.755" rx="0.801887" ry="0.801587" fill="black"/>
<ellipse cx="68.6036" cy="107.563" rx="0.801887" ry="0.801587" fill="black"/>
<ellipse cx="73.4152" cy="102.755" rx="0.801887" ry="0.801587" fill="black"/>
<ellipse cx="73.4152" cy="107.563" rx="0.801887" ry="0.801587" fill="black"/>
<ellipse cx="78.2267" cy="102.755" rx="0.801887" ry="0.801587" fill="black"/>
<ellipse cx="78.2267" cy="107.563" rx="0.801887" ry="0.801587" fill="black"/>
<ellipse cx="83.0382" cy="45.0399" rx="0.801887" ry="0.801587" fill="black"/>
<ellipse cx="83.0382" cy="49.8485" rx="0.801887" ry="0.801587" fill="black"/>
<ellipse cx="87.8488" cy="45.0399" rx="0.801887" ry="0.801587" fill="black"/>
<ellipse cx="87.8488" cy="49.8485" rx="0.801887" ry="0.801587" fill="black"/>
<ellipse cx="92.6603" cy="45.0399" rx="0.801887" ry="0.801587" fill="black"/>
<ellipse cx="92.6603" cy="49.8485" rx="0.801887" ry="0.801587" fill="black"/>
<ellipse cx="97.4718" cy="45.0399" rx="0.801887" ry="0.801587" fill="black"/>
<ellipse cx="97.4718" cy="49.8485" rx="0.801887" ry="0.801587" fill="black"/>
<ellipse cx="102.283" cy="45.0399" rx="0.801887" ry="0.801587" fill="black"/>
<ellipse cx="102.283" cy="49.8485" rx="0.801887" ry="0.801587" fill="black"/>
<ellipse cx="107.094" cy="45.0399" rx="0.801887" ry="0.801587" fill="black"/>
<ellipse cx="107.094" cy="49.8485" rx="0.801887" ry="0.801587" fill="black"/>
<ellipse cx="83.0382" cy="102.755" rx="0.801887" ry="0.801587" fill="black"/>
<ellipse cx="83.0382" cy="107.563" rx="0.801887" ry="0.801587" fill="black"/>
<ellipse cx="87.8488" cy="102.755" rx="0.801887" ry="0.801587" fill="black"/>
<ellipse cx="87.8488" cy="107.563" rx="0.801887" ry="0.801587" fill="black"/>
<ellipse cx="92.6603" cy="102.755" rx="0.801887" ry="0.801587" fill="black"/>
<ellipse cx="92.6603" cy="107.563" rx="0.801887" ry="0.801587" fill="black"/>
<ellipse cx="97.4718" cy="102.755" rx="0.801887" ry="0.801587" fill="black"/>
<ellipse cx="97.4718" cy="107.563" rx="0.801887" ry="0.801587" fill="black"/>
<ellipse cx="102.283" cy="102.755" rx="0.801887" ry="0.801587" fill="black"/>
<ellipse cx="102.283" cy="107.563" rx="0.801887" ry="0.801587" fill="black"/>
<ellipse cx="107.094" cy="102.755" rx="0.801887" ry="0.801587" fill="black"/>
<ellipse cx="107.094" cy="107.563" rx="0.801887" ry="0.801587" fill="black"/>
<ellipse cx="25.3019" cy="54.659" rx="0.801887" ry="0.801587" fill="black"/>
<ellipse cx="111.905" cy="54.659" rx="0.801887" ry="0.801587" fill="black"/>
<ellipse cx="25.3019" cy="59.4696" rx="0.801887" ry="0.801587" fill="black"/>
<ellipse cx="111.905" cy="59.4696" rx="0.801887" ry="0.801587" fill="black"/>
<ellipse cx="30.1134" cy="54.659" rx="0.801887" ry="0.801587" fill="black"/>
<ellipse cx="116.717" cy="54.659" rx="0.801887" ry="0.801587" fill="black"/>
<ellipse cx="30.1134" cy="59.4696" rx="0.801887" ry="0.801587" fill="black"/>
<ellipse cx="116.717" cy="59.4696" rx="0.801887" ry="0.801587" fill="black"/>
<ellipse cx="34.9249" cy="54.659" rx="0.801887" ry="0.801587" fill="black"/>
<ellipse cx="121.528" cy="54.659" rx="0.801887" ry="0.801587" fill="black"/>
<ellipse cx="34.9249" cy="59.4696" rx="0.801887" ry="0.801587" fill="black"/>
<ellipse cx="121.528" cy="59.4696" rx="0.801887" ry="0.801587" fill="black"/>
<ellipse cx="39.7355" cy="54.659" rx="0.801887" ry="0.801587" fill="black"/>
<ellipse cx="126.34" cy="54.659" rx="0.801887" ry="0.801587" fill="black"/>
<ellipse cx="39.7355" cy="59.4696" rx="0.801887" ry="0.801587" fill="black"/>
<ellipse cx="126.34" cy="59.4696" rx="0.801887" ry="0.801587" fill="black"/>
<ellipse cx="44.547" cy="54.659" rx="0.801887" ry="0.801587" fill="black"/>
<ellipse cx="131.151" cy="54.659" rx="0.801887" ry="0.801587" fill="black"/>
<ellipse cx="44.547" cy="59.4696" rx="0.801887" ry="0.801587" fill="black"/>
<ellipse cx="131.151" cy="59.4696" rx="0.801887" ry="0.801587" fill="black"/>
<ellipse cx="49.3585" cy="54.659" rx="0.801887" ry="0.801587" fill="black"/>
<ellipse cx="49.3585" cy="59.4696" rx="0.801887" ry="0.801587" fill="black"/>
<ellipse cx="25.3019" cy="112.372" rx="0.801887" ry="0.801587" fill="black"/>
<ellipse cx="111.905" cy="112.372" rx="0.801887" ry="0.801587" fill="black"/>
<ellipse cx="25.3019" cy="117.182" rx="0.801887" ry="0.801587" fill="black"/>
<ellipse cx="111.905" cy="117.182" rx="0.801887" ry="0.801587" fill="black"/>
<ellipse cx="30.1134" cy="112.372" rx="0.801887" ry="0.801587" fill="black"/>
<ellipse cx="116.717" cy="112.372" rx="0.801887" ry="0.801587" fill="black"/>
<ellipse cx="30.1134" cy="117.182" rx="0.801887" ry="0.801587" fill="black"/>
<ellipse cx="116.717" cy="117.182" rx="0.801887" ry="0.801587" fill="black"/>
<ellipse cx="34.9249" cy="112.372" rx="0.801887" ry="0.801587" fill="black"/>
<ellipse cx="121.528" cy="112.372" rx="0.801887" ry="0.801587" fill="black"/>
<ellipse cx="34.9249" cy="117.182" rx="0.801887" ry="0.801587" fill="black"/>
<ellipse cx="121.528" cy="117.182" rx="0.801887" ry="0.801587" fill="black"/>
<ellipse cx="39.7355" cy="112.372" rx="0.801887" ry="0.801587" fill="black"/>
<ellipse cx="126.34" cy="112.372" rx="0.801887" ry="0.801587" fill="black"/>
<ellipse cx="39.7355" cy="117.182" rx="0.801887" ry="0.801587" fill="black"/>
<ellipse cx="126.34" cy="117.182" rx="0.801887" ry="0.801587" fill="black"/>
<ellipse cx="44.547" cy="112.372" rx="0.801887" ry="0.801587" fill="black"/>
<ellipse cx="131.151" cy="112.372" rx="0.801887" ry="0.801587" fill="black"/>
<ellipse cx="44.547" cy="117.182" rx="0.801887" ry="0.801587" fill="black"/>
<ellipse cx="131.151" cy="117.182" rx="0.801887" ry="0.801587" fill="black"/>
<ellipse cx="49.3585" cy="112.372" rx="0.801887" ry="0.801587" fill="black"/>
<ellipse cx="49.3585" cy="117.182" rx="0.801887" ry="0.801587" fill="black"/>
<ellipse cx="54.1701" cy="54.659" rx="0.801887" ry="0.801587" fill="black"/>
<ellipse cx="54.1701" cy="59.4696" rx="0.801887" ry="0.801587" fill="black"/>
<ellipse cx="58.9816" cy="54.659" rx="0.801887" ry="0.801587" fill="black"/>
<ellipse cx="58.9816" cy="59.4696" rx="0.801887" ry="0.801587" fill="black"/>
<ellipse cx="63.7921" cy="54.659" rx="0.801887" ry="0.801587" fill="black"/>
<ellipse cx="63.7921" cy="59.4696" rx="0.801887" ry="0.801587" fill="black"/>
<ellipse cx="68.6036" cy="54.659" rx="0.801887" ry="0.801587" fill="black"/>
<ellipse cx="68.6036" cy="59.4696" rx="0.801887" ry="0.801587" fill="black"/>
<ellipse cx="73.4152" cy="54.659" rx="0.801887" ry="0.801587" fill="black"/>
<ellipse cx="73.4152" cy="59.4696" rx="0.801887" ry="0.801587" fill="black"/>
<ellipse cx="78.2267" cy="54.659" rx="0.801887" ry="0.801587" fill="black"/>
<ellipse cx="78.2267" cy="59.4696" rx="0.801887" ry="0.801587" fill="black"/>
<ellipse cx="54.1701" cy="112.372" rx="0.801887" ry="0.801587" fill="black"/>
<ellipse cx="54.1701" cy="117.182" rx="0.801887" ry="0.801587" fill="black"/>
<ellipse cx="58.9816" cy="112.372" rx="0.801887" ry="0.801587" fill="black"/>
<ellipse cx="58.9816" cy="117.182" rx="0.801887" ry="0.801587" fill="black"/>
<ellipse cx="63.7921" cy="112.372" rx="0.801887" ry="0.801587" fill="black"/>
<ellipse cx="63.7921" cy="117.182" rx="0.801887" ry="0.801587" fill="black"/>
<ellipse cx="68.6036" cy="112.372" rx="0.801887" ry="0.801587" fill="black"/>
<ellipse cx="68.6036" cy="117.182" rx="0.801887" ry="0.801587" fill="black"/>
<ellipse cx="73.4152" cy="112.372" rx="0.801887" ry="0.801587" fill="black"/>
<ellipse cx="73.4152" cy="117.182" rx="0.801887" ry="0.801587" fill="black"/>
<ellipse cx="78.2267" cy="112.372" rx="0.801887" ry="0.801587" fill="black"/>
<ellipse cx="78.2267" cy="117.182" rx="0.801887" ry="0.801587" fill="black"/>
<ellipse cx="83.0382" cy="54.659" rx="0.801887" ry="0.801587" fill="black"/>
<ellipse cx="83.0382" cy="59.4696" rx="0.801887" ry="0.801587" fill="black"/>
<ellipse cx="87.8488" cy="54.659" rx="0.801887" ry="0.801587" fill="black"/>
<ellipse cx="87.8488" cy="59.4696" rx="0.801887" ry="0.801587" fill="black"/>
<ellipse cx="92.6603" cy="54.659" rx="0.801887" ry="0.801587" fill="black"/>
<ellipse cx="92.6603" cy="59.4696" rx="0.801887" ry="0.801587" fill="black"/>
<ellipse cx="97.4718" cy="54.659" rx="0.801887" ry="0.801587" fill="black"/>
<ellipse cx="97.4718" cy="59.4696" rx="0.801887" ry="0.801587" fill="black"/>
<ellipse cx="102.283" cy="54.659" rx="0.801887" ry="0.801587" fill="black"/>
<ellipse cx="102.283" cy="59.4696" rx="0.801887" ry="0.801587" fill="black"/>
<ellipse cx="107.094" cy="54.659" rx="0.801887" ry="0.801587" fill="black"/>
<ellipse cx="107.094" cy="59.4696" rx="0.801887" ry="0.801587" fill="black"/>
<ellipse cx="83.0382" cy="112.372" rx="0.801887" ry="0.801587" fill="black"/>
<ellipse cx="83.0382" cy="117.182" rx="0.801887" ry="0.801587" fill="black"/>
<ellipse cx="87.8488" cy="112.372" rx="0.801887" ry="0.801587" fill="black"/>
<ellipse cx="87.8488" cy="117.182" rx="0.801887" ry="0.801587" fill="black"/>
<ellipse cx="92.6603" cy="112.372" rx="0.801887" ry="0.801587" fill="black"/>
<ellipse cx="92.6603" cy="117.182" rx="0.801887" ry="0.801587" fill="black"/>
<ellipse cx="97.4718" cy="112.372" rx="0.801887" ry="0.801587" fill="black"/>
<ellipse cx="97.4718" cy="117.182" rx="0.801887" ry="0.801587" fill="black"/>
<ellipse cx="102.283" cy="112.372" rx="0.801887" ry="0.801587" fill="black"/>
<ellipse cx="102.283" cy="117.182" rx="0.801887" ry="0.801587" fill="black"/>
<ellipse cx="107.094" cy="112.372" rx="0.801887" ry="0.801587" fill="black"/>
<ellipse cx="107.094" cy="117.182" rx="0.801887" ry="0.801587" fill="black"/>
<ellipse cx="25.3019" cy="64.2782" rx="0.801887" ry="0.801587" fill="black"/>
<ellipse cx="111.905" cy="64.2782" rx="0.801887" ry="0.801587" fill="black"/>
<ellipse cx="25.3019" cy="69.0867" rx="0.801887" ry="0.801587" fill="black"/>
<ellipse cx="111.905" cy="69.0867" rx="0.801887" ry="0.801587" fill="black"/>
<ellipse cx="30.1134" cy="64.2782" rx="0.801887" ry="0.801587" fill="black"/>
<ellipse cx="116.717" cy="64.2782" rx="0.801887" ry="0.801587" fill="black"/>
<ellipse cx="30.1134" cy="69.0867" rx="0.801887" ry="0.801587" fill="black"/>
<ellipse cx="116.717" cy="69.0867" rx="0.801887" ry="0.801587" fill="black"/>
<ellipse cx="34.9249" cy="64.2782" rx="0.801887" ry="0.801587" fill="black"/>
<ellipse cx="121.528" cy="64.2782" rx="0.801887" ry="0.801587" fill="black"/>
<ellipse cx="34.9249" cy="69.0867" rx="0.801887" ry="0.801587" fill="black"/>
<ellipse cx="121.528" cy="69.0867" rx="0.801887" ry="0.801587" fill="black"/>
<ellipse cx="39.7355" cy="64.2782" rx="0.801887" ry="0.801587" fill="black"/>
<ellipse cx="126.34" cy="64.2782" rx="0.801887" ry="0.801587" fill="black"/>
<ellipse cx="39.7355" cy="69.0867" rx="0.801887" ry="0.801587" fill="black"/>
<ellipse cx="126.34" cy="69.0867" rx="0.801887" ry="0.801587" fill="black"/>
<ellipse cx="44.547" cy="64.2782" rx="0.801887" ry="0.801587" fill="black"/>
<ellipse cx="131.151" cy="64.2782" rx="0.801887" ry="0.801587" fill="black"/>
<ellipse cx="44.547" cy="69.0867" rx="0.801887" ry="0.801587" fill="black"/>
<ellipse cx="131.151" cy="69.0867" rx="0.801887" ry="0.801587" fill="black"/>
<ellipse cx="49.3585" cy="64.2782" rx="0.801887" ry="0.801587" fill="black"/>
<ellipse cx="49.3585" cy="69.0867" rx="0.801887" ry="0.801587" fill="black"/>
<ellipse cx="25.3019" cy="121.993" rx="0.801887" ry="0.801587" fill="black"/>
<ellipse cx="111.905" cy="121.993" rx="0.801887" ry="0.801587" fill="black"/>
<ellipse cx="25.3019" cy="126.802" rx="0.801887" ry="0.801587" fill="black"/>
<ellipse cx="111.905" cy="126.802" rx="0.801887" ry="0.801587" fill="black"/>
<ellipse cx="30.1134" cy="121.993" rx="0.801887" ry="0.801587" fill="black"/>
<ellipse cx="116.717" cy="121.993" rx="0.801887" ry="0.801587" fill="black"/>
<ellipse cx="30.1134" cy="126.802" rx="0.801887" ry="0.801587" fill="black"/>
<ellipse cx="116.717" cy="126.802" rx="0.801887" ry="0.801587" fill="black"/>
<ellipse cx="34.9249" cy="121.993" rx="0.801887" ry="0.801587" fill="black"/>
<ellipse cx="121.528" cy="121.993" rx="0.801887" ry="0.801587" fill="black"/>
<ellipse cx="34.9249" cy="126.802" rx="0.801887" ry="0.801587" fill="black"/>
<ellipse cx="121.528" cy="126.802" rx="0.801887" ry="0.801587" fill="black"/>
<ellipse cx="39.7355" cy="121.993" rx="0.801887" ry="0.801587" fill="black"/>
<ellipse cx="126.34" cy="121.993" rx="0.801887" ry="0.801587" fill="black"/>
<ellipse cx="39.7355" cy="126.802" rx="0.801887" ry="0.801587" fill="black"/>
<ellipse cx="126.34" cy="126.802" rx="0.801887" ry="0.801587" fill="black"/>
<ellipse cx="44.547" cy="121.993" rx="0.801887" ry="0.801587" fill="black"/>
<ellipse cx="131.151" cy="121.993" rx="0.801887" ry="0.801587" fill="black"/>
<ellipse cx="44.547" cy="126.802" rx="0.801887" ry="0.801587" fill="black"/>
<ellipse cx="131.151" cy="126.802" rx="0.801887" ry="0.801587" fill="black"/>
<ellipse cx="49.3585" cy="121.993" rx="0.801887" ry="0.801587" fill="black"/>
<ellipse cx="49.3585" cy="126.802" rx="0.801887" ry="0.801587" fill="black"/>
<ellipse cx="54.1701" cy="64.2782" rx="0.801887" ry="0.801587" fill="black"/>
<ellipse cx="54.1701" cy="69.0867" rx="0.801887" ry="0.801587" fill="black"/>
<ellipse cx="58.9816" cy="64.2782" rx="0.801887" ry="0.801587" fill="black"/>
<ellipse cx="58.9816" cy="69.0867" rx="0.801887" ry="0.801587" fill="black"/>
<ellipse cx="63.7921" cy="64.2782" rx="0.801887" ry="0.801587" fill="black"/>
<ellipse cx="63.7921" cy="69.0867" rx="0.801887" ry="0.801587" fill="black"/>
<ellipse cx="68.6036" cy="64.2782" rx="0.801887" ry="0.801587" fill="black"/>
<ellipse cx="68.6036" cy="69.0867" rx="0.801887" ry="0.801587" fill="black"/>
<ellipse cx="73.4152" cy="64.2782" rx="0.801887" ry="0.801587" fill="black"/>
<ellipse cx="73.4152" cy="69.0867" rx="0.801887" ry="0.801587" fill="black"/>
<ellipse cx="78.2267" cy="64.2782" rx="0.801887" ry="0.801587" fill="black"/>
<ellipse cx="78.2267" cy="69.0867" rx="0.801887" ry="0.801587" fill="black"/>
<ellipse cx="54.1701" cy="121.993" rx="0.801887" ry="0.801587" fill="black"/>
<ellipse cx="54.1701" cy="126.802" rx="0.801887" ry="0.801587" fill="black"/>
<ellipse cx="58.9816" cy="121.993" rx="0.801887" ry="0.801587" fill="black"/>
<ellipse cx="58.9816" cy="126.802" rx="0.801887" ry="0.801587" fill="black"/>
<ellipse cx="63.7921" cy="121.993" rx="0.801887" ry="0.801587" fill="black"/>
<ellipse cx="63.7921" cy="126.802" rx="0.801887" ry="0.801587" fill="black"/>
<ellipse cx="68.6036" cy="121.993" rx="0.801887" ry="0.801587" fill="black"/>
<ellipse cx="68.6036" cy="126.802" rx="0.801887" ry="0.801587" fill="black"/>
<ellipse cx="73.4152" cy="121.993" rx="0.801887" ry="0.801587" fill="black"/>
<ellipse cx="73.4152" cy="126.802" rx="0.801887" ry="0.801587" fill="black"/>
<ellipse cx="78.2267" cy="121.993" rx="0.801887" ry="0.801587" fill="black"/>
<ellipse cx="78.2267" cy="126.802" rx="0.801887" ry="0.801587" fill="black"/>
<ellipse cx="83.0382" cy="64.2782" rx="0.801887" ry="0.801587" fill="black"/>
<ellipse cx="83.0382" cy="69.0867" rx="0.801887" ry="0.801587" fill="black"/>
<ellipse cx="87.8488" cy="64.2782" rx="0.801887" ry="0.801587" fill="black"/>
<ellipse cx="87.8488" cy="69.0867" rx="0.801887" ry="0.801587" fill="black"/>
<ellipse cx="92.6603" cy="64.2782" rx="0.801887" ry="0.801587" fill="black"/>
<ellipse cx="92.6603" cy="69.0867" rx="0.801887" ry="0.801587" fill="black"/>
<ellipse cx="97.4718" cy="64.2782" rx="0.801887" ry="0.801587" fill="black"/>
<ellipse cx="97.4718" cy="69.0867" rx="0.801887" ry="0.801587" fill="black"/>
<ellipse cx="102.283" cy="64.2782" rx="0.801887" ry="0.801587" fill="black"/>
<ellipse cx="102.283" cy="69.0867" rx="0.801887" ry="0.801587" fill="black"/>
<ellipse cx="107.094" cy="64.2782" rx="0.801887" ry="0.801587" fill="black"/>
<ellipse cx="107.094" cy="69.0867" rx="0.801887" ry="0.801587" fill="black"/>
<ellipse cx="83.0382" cy="121.993" rx="0.801887" ry="0.801587" fill="black"/>
<ellipse cx="83.0382" cy="126.802" rx="0.801887" ry="0.801587" fill="black"/>
<ellipse cx="87.8488" cy="121.993" rx="0.801887" ry="0.801587" fill="black"/>
<ellipse cx="87.8488" cy="126.802" rx="0.801887" ry="0.801587" fill="black"/>
<ellipse cx="92.6603" cy="121.993" rx="0.801887" ry="0.801587" fill="black"/>
<ellipse cx="92.6603" cy="126.802" rx="0.801887" ry="0.801587" fill="black"/>
<ellipse cx="97.4718" cy="121.993" rx="0.801887" ry="0.801587" fill="black"/>
<ellipse cx="97.4718" cy="126.802" rx="0.801887" ry="0.801587" fill="black"/>
<ellipse cx="102.283" cy="121.993" rx="0.801887" ry="0.801587" fill="black"/>
<ellipse cx="102.283" cy="126.802" rx="0.801887" ry="0.801587" fill="black"/>
<ellipse cx="107.094" cy="121.993" rx="0.801887" ry="0.801587" fill="black"/>
<ellipse cx="107.094" cy="126.802" rx="0.801887" ry="0.801587" fill="black"/>
<mask id="path-507-inside-1_867_81217" fill="white">
<path d="M34 20C34 15.5817 37.5817 12 42 12H158C162.418 12 166 15.5817 166 20V136C166 140.418 162.418 144 158 144H42C37.5817 144 34 140.418 34 136V20Z"/>
</mask>
<path d="M34 20C34 15.5817 37.5817 12 42 12H158C162.418 12 166 15.5817 166 20V136C166 140.418 162.418 144 158 144H42C37.5817 144 34 140.418 34 136V20Z" fill="white"/>
<path d="M34 12H166H34ZM169 136C169 142.075 164.075 147 158 147H45C38.9249 147 34 142.075 34 136C34 138.761 37.5817 141 42 141H158C160.761 141 163 138.761 163 136H169ZM34 144V12V144ZM158 12C164.075 12 169 16.9249 169 23V136C169 142.075 164.075 147 158 147V141C160.761 141 163 138.761 163 136V20C163 15.5817 160.761 12 158 12Z" fill="url(#paint0_linear_867_81217)" mask="url(#path-507-inside-1_867_81217)"/>
<rect x="42" y="20" width="27" height="27" rx="8" fill="#EFF3F7"/>
<rect x="75.5" y="20" width="83" height="10" rx="5" fill="#EFF3F7"/>
<rect x="42" y="119" width="116" height="15" rx="7.5" fill="#EFF3F7"/>
<rect x="42" y="62" width="116" height="49" rx="8" fill="#EFF3F7"/>
<rect x="130.5" y="28.5" width="110" height="45" rx="7.5" fill="white" stroke="#E9E6F8"/>
<path fill-rule="evenodd" clip-rule="evenodd" d="M161.186 53.4713H161.976L166.216 57.7313C166.626 58.1413 166.626 58.8113 166.216 59.2213C165.806 59.6313 165.136 59.6313 164.726 59.2213L160.476 54.9713V54.1813L160.206 53.9013C158.806 55.1013 156.896 55.7213 154.866 55.3813C152.086 54.9113 149.866 52.5913 149.526 49.7913C149.006 45.5613 152.566 42.0013 156.796 42.5213C159.596 42.8613 161.916 45.0813 162.386 47.8613C162.726 49.8913 162.106 51.8013 160.906 53.2013L161.186 53.4713ZM151.476 48.9713C151.476 51.4613 153.486 53.4713 155.976 53.4713C158.466 53.4713 160.476 51.4613 160.476 48.9713C160.476 46.4813 158.466 44.4713 155.976 44.4713C153.486 44.4713 151.476 46.4813 151.476 48.9713Z" fill="#505969"/>
</g>
<defs>
<filter id="filter0_d_867_81217" x="0.5" y="0" width="264.5" height="180" filterUnits="userSpaceOnUse" color-interpolation-filters="sRGB">
<feFlood flood-opacity="0" result="BackgroundImageFix"/>
<feColorMatrix in="SourceAlpha" type="matrix" values="0 0 0 0 0 0 0 0 0 0 0 0 0 0 0 0 0 0 127 0" result="hardAlpha"/>
<feOffset dy="12"/>
<feGaussianBlur stdDeviation="12"/>
<feComposite in2="hardAlpha" operator="out"/>
<feColorMatrix type="matrix" values="0 0 0 0 0 0 0 0 0 0 0 0 0 0 0 0 0 0 0.1 0"/>
<feBlend mode="normal" in2="BackgroundImageFix" result="effect1_dropShadow_867_81217"/>
<feBlend mode="normal" in="SourceGraphic" in2="effect1_dropShadow_867_81217" result="shape"/>
</filter>
<linearGradient id="paint0_linear_867_81217" x1="100" y1="12" x2="100" y2="144" gradientUnits="userSpaceOnUse">
<stop stop-color="#D01665"/>
<stop offset="1" stop-color="#442CC7"/>
</linearGradient>
</defs>
</svg>
